<?xml version="1.0" encoding="utf-8"?>
<!-- Generator: Adobe Illustrator 19.2.1, SVG Export Plug-In . SVG Version: 6.00 Build 0)  -->
<svg version="1.1" id="レイヤー_1" xmlns="http://www.w3.org/2000/svg" xmlns:xlink="http://www.w3.org/1999/xlink" x="0px"
	 y="0px" viewBox="-25 -35 550 515" style="enable-background:new 0 0 550 550;" xml:space="preserve">
<style type="text/css">
	.st0{fill:#FFFFFF;}
</style>
<path id="XMLID_108_" class="st0" d="M491.4,229.1L270.8,8.6c-11.5-11.5-30.2-11.5-41.7,0L8.6,229.1c-11.5,11.5-11.5,30.2,0,41.7
	l165.2,165.1h152.5l165.1-165.1C502.9,259.2,502.9,240.6,491.4,229.1z M124.4,275.2l-24.5-24.5c-1.7-1.7-1.7-4.5,0-6.2L245.5,98.9
	c1.7-1.7,4.5-1.7,6.2,0l32.8,32.8c1.7,1.7,1.7,4.5,0,6.2L147.1,275.2H124.4z M285.9,366.5L261.3,391h-22.7l-24.5-24.5
	c-1.7-1.7-1.7-4.5,0-6.2l32.8-32.8c1.7-1.7,4.5-1.7,6.2,0l32.8,32.8C287.6,362,287.6,364.8,285.9,366.5z M286.2,251l-81.7,81.7
	h-22.7l-24.5-24.5c-1.7-1.7-1.7-4.5,0-6.2l89.9-89.9c1.7-1.7,4.5-1.7,6.2,0l32.8,32.8C287.9,246.6,287.9,249.3,286.2,251z"/>
</svg>
