<?xml version="1.0" encoding="UTF-8" standalone="no"?>
<!-- Created with Inkscape (http://www.inkscape.org/) -->

<svg
   xmlns:dc="http://purl.org/dc/elements/1.1/"
   xmlns:cc="http://creativecommons.org/ns#"
   xmlns:rdf="http://www.w3.org/1999/02/22-rdf-syntax-ns#"
   xmlns:svg="http://www.w3.org/2000/svg"
   xmlns="http://www.w3.org/2000/svg"
   xmlns:sodipodi="http://sodipodi.sourceforge.net/DTD/sodipodi-0.dtd"
   xmlns:inkscape="http://www.inkscape.org/namespaces/inkscape"
   width="320"
   height="320"
   viewBox="0 0 84.666664 84.666669"
   version="1.1"
   id="svg8"
   inkscape:version="0.92.4 (unknown)"
   sodipodi:docname="onenote.svg">
  <defs
     id="defs2" />
  <sodipodi:namedview
     id="base"
     pagecolor="#ffffff"
     bordercolor="#666666"
     borderopacity="1.0"
     inkscape:pageopacity="0.0"
     inkscape:pageshadow="2"
     inkscape:zoom="0.7"
     inkscape:cx="73.595637"
     inkscape:cy="153.98639"
     inkscape:document-units="mm"
     inkscape:current-layer="layer1"
     showgrid="false"
     units="px"
     inkscape:pagecheckerboard="true"
     inkscape:window-width="1920"
     inkscape:window-height="995"
     inkscape:window-x="0"
     inkscape:window-y="48"
     inkscape:window-maximized="1" />
  <metadata
     id="metadata5">
    <rdf:RDF>
      <cc:Work
         rdf:about="">
        <dc:format>image/svg+xml</dc:format>
        <dc:type
           rdf:resource="http://purl.org/dc/dcmitype/StillImage" />
        <dc:title></dc:title>
      </cc:Work>
    </rdf:RDF>
  </metadata>
  <g
     inkscape:label="レイヤー 1"
     inkscape:groupmode="layer"
     id="layer1"
     transform="translate(0,-212.33332)">
    <path
       style="fill:#FFFFFF;stroke-width:0.26458332"
       d="m 28.482769,282.17759 c -9.240572,-1.6529 -17.187994,-3.07734 -17.660936,-3.16543 L 9.9619374,278.852 v -24.17636 -24.17637 l 0.7276036,-0.15084 c 1.923898,-0.39885 35.28957,-6.2412 35.64353,-6.2412 0.341275,0 0.405948,0.48337 0.405948,3.0341 v 3.0341 l 10.739198,0.0748 10.739199,0.0748 0.505593,0.62462 c 0.303045,0.37439 0.505592,1.03485 0.505592,1.64861 0,1.10611 -0.0041,1.10353 2.210797,1.4017 1.342718,0.18076 2.25149,0.80356 2.678692,1.83575 0.527957,1.27564 0.739727,6.5311 0.385649,9.57057 -0.375169,3.22049 -0.375243,3.18947 0.01707,7.22285 0.242229,2.49046 0.244671,3.94959 0.0104,6.21771 -0.365331,3.53704 -0.365529,3.3143 0.0061,6.80006 0.208097,1.95193 0.21786,3.75926 0.03283,6.07725 -0.256334,3.21125 -0.285118,3.31858 -1.080603,4.02934 -0.809559,0.72334 -1.080328,0.82565 -3.003489,1.13482 -0.744117,0.11963 -1.091409,0.35255 -1.391801,0.93345 -0.220149,0.42572 -0.629338,0.89663 -0.909307,1.04646 -0.324519,0.17368 -4.303553,0.27243 -10.977467,0.27243 H 46.739019 v 3.04271 3.04271 l -0.727605,-0.0216 c -0.400182,-0.0118 -8.288072,-1.37393 -17.528645,-3.02682 z m 38.629165,-19.80026 v -14.64657 l 2.170779,-0.14879 c 1.595681,-0.10937 2.256168,-0.26556 2.493084,-0.58957 0.717603,-0.98138 0.805678,-8.86405 0.113493,-10.15741 -0.221789,-0.41442 -0.690268,-0.54365 -2.524836,-0.69647 l -2.25252,-0.18763 v -1.82079 -1.82079 H 56.925476 46.739019 v 2.24896 2.24896 h 7.937499 7.9375 v 1.32292 1.32291 h -7.9375 -7.937499 v 1.98438 1.98437 h 7.937499 7.9375 v 1.32292 1.32292 h -7.9375 -7.937499 v 1.98437 1.98438 h 7.937499 7.9375 v 1.32291 1.32292 h -7.9375 -7.937499 v 1.98437 1.98438 h 7.937499 7.9375 v 1.32291 1.32292 h -7.9375 -7.937499 v 1.98438 1.98437 h 7.937499 7.9375 v 1.32292 1.32291 h -7.9375 -7.937499 v 1.98438 1.98437 h 7.937499 7.9375 v 1.32292 1.32292 h -7.9375 -7.937499 v 2.24896 2.24895 h 10.186457 10.186458 z m 4.7625,11.56843 c 0.324167,-0.31072 0.396243,-1.25007 0.39343,-5.12742 -0.0039,-5.34968 -0.02297,-5.40654 -1.914784,-5.70662 l -1.124479,-0.17837 v 5.8779 5.87791 l 1.124479,-0.1815 c 0.618463,-0.0998 1.303073,-0.35268 1.521354,-0.5619 z M 34.832769,254.71587 v -10.93095 l -1.653646,0.11475 c -0.909505,0.0631 -1.713177,0.1697 -1.785937,0.23685 -0.07276,0.0671 -0.191823,3.29733 -0.264583,7.17817 l -0.132292,7.05608 -1.220286,-2.24896 c -0.671156,-1.23693 -2.2785,-4.30099 -3.571874,-6.80904 l -2.35159,-4.56008 -1.918229,-0.004 -1.918229,-0.004 v 9.92187 9.92188 h 0.760677 c 0.418373,0 1.132748,0.0744 1.5875,0.16536 l 0.826823,0.16537 0.0028,-7.24297 0.0028,-7.24297 3.720529,7.14375 c 2.046292,3.92906 3.81548,7.24139 3.931531,7.36072 0.11605,0.11934 1.030144,0.31205 2.031319,0.42825 1.001176,0.1162 1.850085,0.22692 1.886465,0.24605 0.03638,0.0191 0.06615,-4.88415 0.06615,-10.89617 z m 37.041665,6.00072 c 0.324167,-0.31071 0.396243,-1.25007 0.39343,-5.12742 -0.0039,-5.34968 -0.02297,-5.40653 -1.914784,-5.70662 l -1.124479,-0.17837 v 5.87791 5.8779 l 1.124479,-0.18149 c 0.618463,-0.0998 1.303073,-0.35268 1.521354,-0.56191 z"
       id="path3776"
       inkscape:connector-curvature="0" />
  </g>
</svg>
