<?xml version="1.0" encoding="UTF-8" standalone="no"?>
<!-- Created with Inkscape (http://www.inkscape.org/) -->

<svg
   xmlns:dc="http://purl.org/dc/elements/1.1/"
   xmlns:cc="http://creativecommons.org/ns#"
   xmlns:rdf="http://www.w3.org/1999/02/22-rdf-syntax-ns#"
   xmlns:svg="http://www.w3.org/2000/svg"
   xmlns="http://www.w3.org/2000/svg"
   xmlns:sodipodi="http://sodipodi.sourceforge.net/DTD/sodipodi-0.dtd"
   xmlns:inkscape="http://www.inkscape.org/namespaces/inkscape"
   width="480"
   height="480"
   viewBox="0 0 127 127"
   version="1.1"
   id="svg8"
   inkscape:version="0.92.4 (unknown)"
   sodipodi:docname="outlook.svg">
  <defs
     id="defs2" />
  <sodipodi:namedview
     id="base"
     pagecolor="#ffffff"
     bordercolor="#666666"
     borderopacity="1.0"
     inkscape:pageopacity="0.0"
     inkscape:pageshadow="2"
     inkscape:zoom="0.7"
     inkscape:cx="245.87525"
     inkscape:cy="192.24918"
     inkscape:document-units="mm"
     inkscape:current-layer="layer1"
     showgrid="false"
     units="px"
     inkscape:window-width="1420"
     inkscape:window-height="911"
     inkscape:window-x="97"
     inkscape:window-y="109"
     inkscape:window-maximized="0" />
  <metadata
     id="metadata5">
    <rdf:RDF>
      <cc:Work
         rdf:about="">
        <dc:format>image/svg+xml</dc:format>
        <dc:type
           rdf:resource="http://purl.org/dc/dcmitype/StillImage" />
        <dc:title></dc:title>
      </cc:Work>
    </rdf:RDF>
  </metadata>
  <g
     inkscape:label="レイヤー 1"
     inkscape:groupmode="layer"
     id="layer1"
     transform="translate(0,-169.99998)">
    <path
       style="fill:#FFFFFF;stroke-width:0.31757066"
       d="m 69.333983,271.56549 c -0.07882,-0.0784 -1.143648,-0.28877 -2.366295,-0.46741 -1.222647,-0.17865 -7.296186,-1.18741 -13.496753,-2.2417 -6.200567,-1.05428 -15.275148,-2.58574 -20.165736,-3.40323 -4.890589,-0.8175 -9.070612,-1.62479 -9.288942,-1.79399 -0.312694,-0.24233 -0.396963,-6.80101 -0.396963,-30.89558 0,-17.13899 0.12219,-30.66346 0.277906,-30.7597 0.280385,-0.17329 3.815363,-0.79273 24.65139,-4.31974 19.137046,-3.23942 21.128211,-3.54946 21.609546,-3.36476 0.404245,0.15513 0.453745,5.14877 0.383492,38.6887 -0.07221,34.47652 -0.132186,38.52051 -0.572504,38.6053 -0.270513,0.0521 -0.556326,0.0306 -0.635141,-0.0479 z M 51.041872,245.63494 c 4.238593,-2.11686 6.457729,-6.97776 6.156892,-13.48636 -0.175814,-3.80368 -0.936758,-6.17643 -2.751728,-8.58034 -3.829689,-5.07239 -12.177447,-4.77226 -15.85299,0.56996 -3.00679,4.37022 -3.395493,12.02376 -0.864337,17.01876 1.009056,1.99128 3.647857,4.35707 5.534586,4.96199 2.184142,0.70027 5.864938,0.47121 7.777577,-0.48401 z m -6.069483,-2.95408 c -2.648756,-0.96063 -4.192647,-3.19112 -4.859537,-7.02069 -0.715373,-4.10797 0.663663,-9.03635 3.0289,-10.82463 2.097129,-1.58557 5.055818,-1.64353 7.166767,-0.14041 2.232356,1.58958 3.574188,6.64879 2.905022,10.95303 -0.602114,3.87296 -2.069878,6.00864 -4.788772,6.96792 -1.607831,0.56727 -2.04425,0.57546 -3.45238,0.0648 z m 27.552785,2.17403 c 0,-6.02782 0.110347,-10.95967 0.245216,-10.95967 0.134866,0 0.742219,0.40593 1.349675,0.90206 3.420099,2.79334 4.158683,3.22639 5.495382,3.22214 1.236903,-0.004 1.916987,-0.45958 10.190947,-6.82777 4.876079,-3.75295 8.985999,-6.82355 9.133151,-6.82355 0.147153,0 0.230477,7.03816 0.185163,15.64036 l -0.08238,15.64035 -13.258575,0.0829 -13.258575,0.0829 z m 29.365376,1.98134 c -0.0818,-0.21833 -0.18452,-7.18504 -0.22821,-15.48157 l -0.0794,-15.08461 -14.449466,-0.15879 -14.449464,-0.15878 -0.09599,-1.66725 -0.09599,-1.66724 h 15.713659 c 13.861721,0 15.772481,0.0588 16.212701,0.49904 0.44081,0.4408 0.49904,2.41587 0.49904,16.92651 0,12.3535 -0.0945,16.52199 -0.38108,16.80856 -0.5024,0.5024 -2.45592,0.49068 -2.64575,-0.0159 z m -25.951491,-15.04128 -3.413885,-2.70673 v -5.53576 -5.53577 h 12.981514 c 11.102295,0 13.038254,0.0684 13.373494,0.47231 0.215592,0.25977 0.319486,0.66124 0.230877,0.89215 -0.167331,0.43606 -18.65378,14.74608 -19.358431,14.98501 -0.219828,0.0745 -1.935933,-1.08251 -3.813569,-2.57121 z"
       id="path23"
       inkscape:connector-curvature="0" />
  </g>
</svg>
