<?xml version="1.0" encoding="UTF-8" standalone="no"?>
<!-- Created with Inkscape (http://www.inkscape.org/) -->

<svg
   xmlns:dc="http://purl.org/dc/elements/1.1/"
   xmlns:cc="http://creativecommons.org/ns#"
   xmlns:rdf="http://www.w3.org/1999/02/22-rdf-syntax-ns#"
   xmlns:svg="http://www.w3.org/2000/svg"
   xmlns="http://www.w3.org/2000/svg"
   xmlns:sodipodi="http://sodipodi.sourceforge.net/DTD/sodipodi-0.dtd"
   xmlns:inkscape="http://www.inkscape.org/namespaces/inkscape"
   width="1000"
   height="1000"
   viewBox="0 0 264.58333 264.58334"
   version="1.1"
   id="svg8"
   inkscape:version="0.92.4 (unknown)"
   sodipodi:docname="qq.svg">
  <defs
     id="defs2" />
  <sodipodi:namedview
     id="base"
     pagecolor="#ffffff"
     bordercolor="#666666"
     borderopacity="1.0"
     inkscape:pageopacity="0.0"
     inkscape:pageshadow="2"
     inkscape:zoom="0.49497475"
     inkscape:cx="218.2065"
     inkscape:cy="539.55888"
     inkscape:document-units="mm"
     inkscape:current-layer="layer2"
     showgrid="false"
     units="px"
     inkscape:window-width="1318"
     inkscape:window-height="863"
     inkscape:window-x="37"
     inkscape:window-y="48"
     inkscape:window-maximized="0" />
  <metadata
     id="metadata5">
    <rdf:RDF>
      <cc:Work
         rdf:about="">
        <dc:format>image/svg+xml</dc:format>
        <dc:type
           rdf:resource="http://purl.org/dc/dcmitype/StillImage" />
        <dc:title></dc:title>
      </cc:Work>
    </rdf:RDF>
  </metadata>
  <g
     inkscape:label="レイヤー 1"
     inkscape:groupmode="layer"
     id="layer1"
     transform="translate(0,-32.41665)" />
  <g
     inkscape:groupmode="layer"
     id="layer2"
     inkscape:label="レイヤー 2">
    <path
       style="fill:#FFFFFF;stroke-width:0.35277781"
       d="m 94.324001,218.3681 c -5.169977,-0.41625 -11.339556,-1.80993 -14.076431,-3.17981 -2.925946,-1.46451 -3.831987,-2.33271 -6.226527,-5.96646 l -2.274823,-3.45208 0.01964,-4.43263 c 0.01654,-3.73375 0.14468,-4.74977 0.812712,-6.44405 1.125814,-2.8553 3.32207,-5.12635 6.898867,-7.13383 1.665679,-0.93486 3.028509,-1.83318 3.028509,-1.99626 0,-0.16308 -0.83965,-1.53296 -1.865887,-3.04418 -3.639431,-5.35932 -6.777397,-11.1193 -7.971505,-14.6323 -0.313256,-0.92159 -0.726472,-1.70639 -0.918259,-1.74402 -0.191787,-0.0376 -1.038412,0.94968 -1.881389,2.19402 -1.914415,2.82591 -6.110425,7.14471 -8.073875,8.31015 -2.16667,1.28606 -3.26248,1.04484 -4.23585,-0.93245 -1.40358,-2.8512 -1.93472,-5.59445 -2.11742,-10.93611 -0.20177,-5.89917 0.29588,-9.54997 2.02167,-14.83108 2.20629,-6.7515 5.18789,-12.17198 11.04183,-20.07376 l 3.513303,-4.74234 -0.06005,-5.13544 c -0.05409,-4.62515 0.01401,-5.2719 0.685306,-6.50881 0.409948,-0.75535 0.897959,-2.32093 1.08447,-3.47906 0.395873,-2.45814 1.768498,-5.4266 2.98116,-6.4471 0.762892,-0.642 0.908702,-1.22676 1.407436,-5.644438 0.306006,-2.710533 0.862803,-6.459827 1.237328,-8.331761 1.947954,-9.736241 7.159368,-19.825443 14.039621,-27.180455 7.424003,-7.936276 18.735763,-14.05422 29.590253,-16.003825 3.80728,-0.683835 13.64291,-0.77216 18.59584,-0.166993 16.55522,2.022779 33.31575,14.429909 41.45644,30.688512 2.99706,5.98571 4.47569,10.890059 5.66484,18.789177 0.84642,5.622553 1.10513,6.484133 2.83688,9.447923 2.68894,4.60196 3.40334,8.77155 2.78455,16.25205 l -0.16252,1.96456 3.06746,4.56183 c 5.22187,7.76582 9.25643,16.47882 11.04058,23.84315 1.8705,7.72071 0.74019,20.34613 -2.1664,24.19856 -0.69532,0.92157 -1.1146,1.14653 -2.13696,1.14653 -1.1272,0 -1.5968,-0.33116 -4.12719,-2.91042 -1.57039,-1.60073 -3.80776,-4.37637 -4.97193,-6.16808 -1.16417,-1.79171 -2.19604,-3.25958 -2.29306,-3.26192 -0.097,-0.002 -0.71156,1.38423 -1.36566,3.08127 -1.57749,4.09272 -4.1703,8.92562 -7.32095,13.64599 l -2.57485,3.85767 2.9656,1.46388 c 1.63108,0.80513 3.70997,2.07383 4.61976,2.81933 1.90446,1.56057 3.6761,4.15822 3.6761,5.39005 0,0.46547 0.33718,1.95639 0.74929,3.31315 0.90802,2.98947 0.74259,4.81394 -0.71314,7.86514 -4.06444,8.51907 -12.15487,12.21314 -25.61254,11.69462 -5.33311,-0.20549 -12.25957,-1.08589 -18.26585,-2.32173 -12.6176,-2.59618 -19.25741,-2.45061 -36.76748,0.80609 -6.08619,1.13196 -13.72997,2.08703 -15.52223,1.93945 -0.38805,-0.032 -1.340548,-0.10922 -2.116663,-0.17171 z m 11.570219,-7.978 c 1.2438,-0.81602 1.23212,-2.19172 -0.0311,-3.66194 -0.52569,-0.61183 -2.71457,-2.59621 -4.86418,-4.40972 -2.14961,-1.81351 -5.1677,-4.41399 -6.706865,-5.77885 -2.448398,-2.1711 -5.813577,-4.85085 -9.398794,-7.48441 -0.594318,-0.43657 -1.493665,-0.7922 -1.998546,-0.79031 -2.162814,0.008 -7.444367,3.52118 -7.444367,4.95167 0,0.36674 0.398403,0.87554 0.885341,1.13067 l 0.885341,0.46388 -1.414508,2.92502 c -0.777979,1.60877 -1.414508,3.31798 -1.414508,3.79825 0,2.77496 3.967735,6.16957 9.172224,7.84732 4.367798,1.40804 7.544671,1.77728 14.657022,1.70356 5.76248,-0.0597 6.85532,-0.15873 7.67292,-0.69514 z m 70.45987,0.0789 c 4.95571,-0.61376 7.16439,-1.4381 10.48072,-3.91169 2.0076,-1.49743 2.91558,-2.88198 2.91558,-4.44588 0,-1.57002 -1.00095,-5.01742 -1.77067,-6.09839 -0.86585,-1.21598 -0.87067,-1.40158 -0.0364,-1.40158 0.90262,0 1.56005,-0.87498 1.292,-1.71952 -0.54396,-1.71385 -5.38462,-4.91651 -6.67984,-4.41949 -0.3074,0.11797 -1.36926,1.24563 -2.35969,2.50593 -1.35356,1.72237 -2.269,2.5058 -3.68611,3.15458 -1.03693,0.47472 -2.25228,1.28113 -2.70077,1.79203 -2.00988,2.2895 -3.64724,3.60338 -7.15573,5.74202 -5.69597,3.47205 -7.31783,4.65749 -8.02156,5.86303 -0.61459,1.05283 -0.61543,1.13342 -0.0195,1.8596 0.35727,0.43532 1.30005,0.88985 2.21047,1.06569 2.27969,0.44029 12.0176,0.44887 15.53148,0.0137 z m -34.03502,-7.04105 c 18.62479,-3.18407 34.01359,-16.13844 39.80842,-33.51094 0.67957,-2.03729 1.40272,-5.04937 1.60701,-6.69352 0.9731,-7.83144 -0.0601,-19.97197 -1.94449,-22.84786 -0.50471,-0.77028 -0.5715,-0.77973 -1.82123,-0.25756 -0.71351,0.29813 -2.55852,1.35109 -4.10001,2.33991 -6.05475,3.88396 -14.95597,7.48306 -22.9301,9.27152 -11.07211,2.48327 -20.85297,2.86201 -35.24314,1.36473 l -2.02848,-0.21106 -0.006,6.31206 c -0.004,3.47163 -0.16253,7.79708 -0.35371,9.6121 -0.66293,6.2938 -1.8194,7.20141 -9.13073,7.16587 -6.308497,-0.0307 -10.42194,-1.29776 -13.185943,-4.06176 -3.251602,-3.2516 -3.650848,-7.12897 -1.979069,-19.2201 0.384397,-2.78016 0.651969,-6.01575 0.5946,-7.19019 l -0.10432,-2.13536 -3.351389,-2.0365 c -1.843264,-1.12007 -3.477913,-1.91721 -3.632553,-1.77142 -0.670715,0.63234 -2.014703,5.45455 -2.562021,9.19247 -0.764127,5.21867 -0.538765,12.97189 0.497332,17.10973 2.84782,11.37329 9.406009,21.05317 19.333623,28.53641 3.50599,2.64275 10.16213,6.08745 14.40945,7.45722 7.22523,2.33015 17.92839,2.97516 26.12285,1.57425 z m -5.48535,-69.1469 c 0.98394,-0.64591 -0.30409,-0.98253 -4.55655,-1.19082 -11.65919,-0.57107 -18.50103,-1.58194 -25.11327,-3.71044 -1.86333,-0.59981 -3.67387,-1.09056 -4.02342,-1.09056 -0.61083,0 -0.61067,0.0275 0.004,0.7069 0.35185,0.38879 2.12007,1.18109 3.92938,1.76066 5.32182,1.70473 11.18053,2.76111 20.23469,3.64851 2.8389,0.27824 9.035,0.19742 9.525,-0.12425 z m 8.4481,-0.71011 c 2.94241,-0.38186 4.20488,-1.05587 1.94121,-1.03638 -2.02735,0.0175 -9.31326,0.91103 -9.57677,1.17454 -0.33907,0.33907 4.65444,0.24871 7.63556,-0.13816 z m -5.0526,-7.21776 c 6.18212,-1.00268 12.36838,-3.69202 18.41411,-8.00511 3.03352,-2.16416 4.29595,-2.80935 4.29595,-2.19555 0,0.11579 -0.79417,1.33774 -1.76482,2.71546 -0.98686,1.40072 -1.63091,2.63885 -1.46103,2.80873 1.11109,1.11109 11.33974,-4.81227 11.33974,-6.56678 0,-0.97333 -3.25199,-3.38429 -7.18575,-5.32738 -4.64728,-2.29552 -10.17542,-4.19019 -14.3337,-4.9126 -8.77627,-1.52467 -22.70245,-1.62434 -29.45694,-0.21081 -10.38734,2.17379 -22.40139,7.87059 -22.40139,10.62224 0,1.13309 2.54703,3.27434 5.76481,4.8464 2.87745,1.40578 5.52408,2.20705 5.52408,1.67241 0,-0.12724 -0.56582,-1.35491 -1.25737,-2.72814 -0.69155,-1.37324 -1.18134,-2.57282 -1.08842,-2.66574 0.0929,-0.0929 1.93628,1.03641 4.09636,2.50962 4.6332,3.1599 7.60111,4.70494 11.54154,6.00831 5.85971,1.9382 11.88119,2.41694 17.97283,1.42894 z m -18.22554,-26.27665 c 1.703,-1.212634 3.94341,-3.912897 4.8013,-5.786758 2.18409,-4.770699 1.8024,-13.11618 -0.82124,-17.955558 -2.19868,-4.055561 -5.70407,-5.935939 -9.66528,-5.184711 -3.02529,0.573734 -4.97694,2.266017 -6.67467,5.787637 -1.45493,3.017965 -1.84417,5.386995 -1.65372,10.064829 0.18237,4.479378 0.82657,6.717097 2.7848,9.673488 2.72569,4.115053 7.9878,5.708873 11.22881,3.401073 z m -2.03543,-8.361739 c -2.66524,-1.313466 -3.61308,-6.373993 -1.80707,-9.647937 2.01984,-3.661571 5.98988,-2.979966 7.39221,1.269146 0.65164,1.974484 0.30558,5.460648 -0.66448,6.693882 -0.9443,1.200481 -2.47189,2.273783 -3.22463,2.265662 -0.29104,-0.0032 -1.05426,-0.264477 -1.69603,-0.580753 z m 3.16755,-5.2844 c 1.28616,-1.163948 0.3728,-4.275604 -1.00989,-3.440561 -0.35091,0.211924 -0.84918,0.815696 -1.10725,1.341713 -0.40213,0.819612 -0.38835,1.079839 0.0963,1.819543 0.66389,1.013213 1.13753,1.078678 2.02082,0.279305 z m 26.9556,13.672839 c 4.35496,-1.977902 6.9981,-7.521139 6.9981,-14.676495 0,-5.9324 -1.47074,-9.966657 -4.75261,-13.036463 -2.91336,-2.725114 -6.37826,-2.871253 -9.61125,-0.405373 -3.42202,2.610061 -5.0767,6.339178 -5.41654,12.207113 -0.33383,5.764195 0.9392,9.999727 4.04318,13.452095 2.69949,3.002483 5.68995,3.843973 8.73912,2.459123 z m -1.92944,-10.707745 c -0.16278,-0.436563 -0.40934,-1.5875 -0.54792,-2.557639 -0.65669,-4.597217 -3.40511,-4.503406 -4.9571,0.169199 -1.03078,3.103415 -2.27864,3.189633 -2.29004,0.158228 -0.01,-2.662943 1.35632,-5.5306 3.07282,-6.449244 1.76125,-0.942594 4.68122,0.0035 5.62118,1.821053 0.91371,1.76692 0.70972,7.652153 -0.26524,7.652153 -0.18575,0 -0.47092,-0.357188 -0.6337,-0.79375 z"
       id="path3778"
       inkscape:connector-curvature="0" />
  </g>
</svg>
